<svg xmlns="http://www.w3.org/2000/svg" width="861" height="1172" viewBox="0 0 861 1172">
    <g fill="none" fill-rule="evenodd">
        <g stroke="#004BFF" stroke-width="2">
            <g>
                <path d="M640.127 370L437.623 534.548 401 630.85 585.738 788.103 820.5 798 866 588.788z" opacity=".5" transform="translate(0 -894) translate(-408 896)"/>
                <path d="M638.617 417L482.275 545.409 454 620.561 596.626 743.276 777.872 751 813 587.736z" opacity=".65" transform="translate(0 -894) translate(-408 896)"/>
                <path d="M637.848 459L520.265 555.115 499 611.366 606.267 703.219 742.581 709 769 586.797z" opacity=".8" transform="translate(0 -894) translate(-408 896)"/>
                <path d="M636.879 490L548.909 562.278 533 604.579 613.252 673.653 715.234 678 735 586.103z" transform="translate(0 -894) translate(-408 896)"/>
                <path d="M642.123 305L378.65 519.528 331 645.08 571.358 850.096 876.801 863 936 590.242z" opacity=".4" transform="translate(0 -894) translate(-408 896)"/>
                <path d="M645.031 227L307.96 501.503 247 662.157 554.5 924.489 945.264 941 1021 591.988z" opacity=".3" transform="translate(0 -894) translate(-408 896)"/>
                <path d="M648.195 125L214.445 478.317 136 685.096 531.698 1022.749 1034.542 1044 1132 594.781z" opacity=".2" transform="translate(0 -894) translate(-408 896)"/>
                <path d="M651.558 0L99.788 449.047 0 711.853 503.362 1140.991 1143.024 1168 1267 597.066z" opacity=".1" transform="translate(0 -894) translate(-408 896)"/>
            </g>
        </g>
    </g>
</svg>
